<mxfile host="app.diagrams.net" agent="Mozilla/5.0 (Windows NT 10.0; Win64; x64; rv:132.0) Gecko/20100101 Firefox/132.0" version="24.7.17">
  <diagram name="Page-1" id="Wjv7xbmsXUu0kAB5_MUH">
    <mxGraphModel dx="880" dy="470" grid="1" gridSize="10" guides="1" tooltips="1" connect="1" arrows="1" fold="1" page="1" pageScale="1" pageWidth="850" pageHeight="1100" math="0" shadow="0">
      <root>
        <mxCell id="0" />
        <mxCell id="1" parent="0" />
        <mxCell id="3LU_Lk50fY4Hj27xE19s-3" value="" style="edgeStyle=orthogonalEdgeStyle;rounded=0;orthogonalLoop=1;jettySize=auto;html=1;" edge="1" parent="1" source="3LU_Lk50fY4Hj27xE19s-1" target="3LU_Lk50fY4Hj27xE19s-2">
          <mxGeometry relative="1" as="geometry" />
        </mxCell>
        <mxCell id="3LU_Lk50fY4Hj27xE19s-1" value="Start" style="strokeWidth=2;html=1;shape=mxgraph.flowchart.terminator;whiteSpace=wrap;" vertex="1" parent="1">
          <mxGeometry x="9" y="13" width="85" height="50" as="geometry" />
        </mxCell>
        <mxCell id="3LU_Lk50fY4Hj27xE19s-6" value="" style="edgeStyle=orthogonalEdgeStyle;rounded=0;orthogonalLoop=1;jettySize=auto;html=1;" edge="1" parent="1" source="3LU_Lk50fY4Hj27xE19s-2" target="3LU_Lk50fY4Hj27xE19s-4">
          <mxGeometry relative="1" as="geometry" />
        </mxCell>
        <mxCell id="3LU_Lk50fY4Hj27xE19s-2" value="Output welcome message" style="shape=parallelogram;html=1;strokeWidth=2;perimeter=parallelogramPerimeter;whiteSpace=wrap;rounded=1;arcSize=12;size=0.23;" vertex="1" parent="1">
          <mxGeometry x="119" y="8" width="100" height="60" as="geometry" />
        </mxCell>
        <mxCell id="3LU_Lk50fY4Hj27xE19s-22" style="edgeStyle=orthogonalEdgeStyle;rounded=0;orthogonalLoop=1;jettySize=auto;html=1;entryX=0;entryY=0.5;entryDx=0;entryDy=0;" edge="1" parent="1" source="3LU_Lk50fY4Hj27xE19s-4" target="3LU_Lk50fY4Hj27xE19s-5">
          <mxGeometry relative="1" as="geometry" />
        </mxCell>
        <mxCell id="3LU_Lk50fY4Hj27xE19s-4" value="&lt;div&gt;Output entrance ticket prices&lt;/div&gt;" style="shape=parallelogram;html=1;strokeWidth=2;perimeter=parallelogramPerimeter;whiteSpace=wrap;rounded=1;arcSize=12;size=0.23;" vertex="1" parent="1">
          <mxGeometry x="239" y="8" width="100" height="60" as="geometry" />
        </mxCell>
        <mxCell id="3LU_Lk50fY4Hj27xE19s-25" value="" style="edgeStyle=orthogonalEdgeStyle;rounded=0;orthogonalLoop=1;jettySize=auto;html=1;" edge="1" parent="1" source="3LU_Lk50fY4Hj27xE19s-5" target="3LU_Lk50fY4Hj27xE19s-24">
          <mxGeometry relative="1" as="geometry" />
        </mxCell>
        <mxCell id="3LU_Lk50fY4Hj27xE19s-5" value="Input: How many adult tickets?" style="shape=parallelogram;html=1;strokeWidth=2;perimeter=parallelogramPerimeter;whiteSpace=wrap;rounded=1;arcSize=12;size=0.23;" vertex="1" parent="1">
          <mxGeometry x="359" y="8" width="100" height="60" as="geometry" />
        </mxCell>
        <mxCell id="3LU_Lk50fY4Hj27xE19s-28" value="" style="edgeStyle=orthogonalEdgeStyle;rounded=0;orthogonalLoop=1;jettySize=auto;html=1;" edge="1" parent="1" source="3LU_Lk50fY4Hj27xE19s-8" target="3LU_Lk50fY4Hj27xE19s-27">
          <mxGeometry relative="1" as="geometry" />
        </mxCell>
        <mxCell id="3LU_Lk50fY4Hj27xE19s-8" value="Input: How many child tickets?" style="shape=parallelogram;html=1;strokeWidth=2;perimeter=parallelogramPerimeter;whiteSpace=wrap;rounded=1;arcSize=12;size=0.23;" vertex="1" parent="1">
          <mxGeometry x="483" y="8" width="100" height="60" as="geometry" />
        </mxCell>
        <mxCell id="3LU_Lk50fY4Hj27xE19s-33" value="" style="edgeStyle=orthogonalEdgeStyle;rounded=0;orthogonalLoop=1;jettySize=auto;html=1;" edge="1" parent="1" source="3LU_Lk50fY4Hj27xE19s-9" target="3LU_Lk50fY4Hj27xE19s-32">
          <mxGeometry relative="1" as="geometry" />
        </mxCell>
        <mxCell id="3LU_Lk50fY4Hj27xE19s-9" value="Input: How many senior tickets?" style="shape=parallelogram;html=1;strokeWidth=2;perimeter=parallelogramPerimeter;whiteSpace=wrap;rounded=1;arcSize=12;size=0.23;" vertex="1" parent="1">
          <mxGeometry x="608" y="8" width="100" height="60" as="geometry" />
        </mxCell>
        <mxCell id="3LU_Lk50fY4Hj27xE19s-36" value="" style="edgeStyle=orthogonalEdgeStyle;rounded=0;orthogonalLoop=1;jettySize=auto;html=1;" edge="1" parent="1" source="3LU_Lk50fY4Hj27xE19s-20" target="3LU_Lk50fY4Hj27xE19s-35">
          <mxGeometry relative="1" as="geometry" />
        </mxCell>
        <mxCell id="3LU_Lk50fY4Hj27xE19s-20" value="Input: How many visitors require wristbands?" style="shape=parallelogram;html=1;strokeWidth=2;perimeter=parallelogramPerimeter;whiteSpace=wrap;rounded=1;arcSize=12;size=0.23;" vertex="1" parent="1">
          <mxGeometry x="733" y="8" width="100" height="60" as="geometry" />
        </mxCell>
        <mxCell id="3LU_Lk50fY4Hj27xE19s-26" style="edgeStyle=orthogonalEdgeStyle;rounded=0;orthogonalLoop=1;jettySize=auto;html=1;entryX=0;entryY=0.5;entryDx=0;entryDy=0;" edge="1" parent="1" source="3LU_Lk50fY4Hj27xE19s-24" target="3LU_Lk50fY4Hj27xE19s-8">
          <mxGeometry relative="1" as="geometry">
            <Array as="points">
              <mxPoint x="470" y="136" />
              <mxPoint x="470" y="38" />
            </Array>
          </mxGeometry>
        </mxCell>
        <mxCell id="3LU_Lk50fY4Hj27xE19s-24" value="Set total_cost to (num_adult * 20)" style="rounded=1;whiteSpace=wrap;html=1;absoluteArcSize=1;arcSize=14;strokeWidth=2;" vertex="1" parent="1">
          <mxGeometry x="363.5" y="102" width="91" height="68" as="geometry" />
        </mxCell>
        <mxCell id="3LU_Lk50fY4Hj27xE19s-31" style="edgeStyle=orthogonalEdgeStyle;rounded=0;orthogonalLoop=1;jettySize=auto;html=1;entryX=0;entryY=0.5;entryDx=0;entryDy=0;" edge="1" parent="1">
          <mxGeometry relative="1" as="geometry">
            <mxPoint x="578.5" y="136" as="sourcePoint" />
            <mxPoint x="621.5" y="38" as="targetPoint" />
            <Array as="points">
              <mxPoint x="592" y="136" />
              <mxPoint x="592" y="38" />
            </Array>
          </mxGeometry>
        </mxCell>
        <mxCell id="3LU_Lk50fY4Hj27xE19s-27" value="Add (num_child * 12) to total_cost" style="rounded=1;whiteSpace=wrap;html=1;absoluteArcSize=1;arcSize=14;strokeWidth=2;" vertex="1" parent="1">
          <mxGeometry x="489.5" y="102" width="87" height="68" as="geometry" />
        </mxCell>
        <mxCell id="3LU_Lk50fY4Hj27xE19s-34" style="edgeStyle=orthogonalEdgeStyle;rounded=0;orthogonalLoop=1;jettySize=auto;html=1;entryX=0;entryY=0.5;entryDx=0;entryDy=0;" edge="1" parent="1" source="3LU_Lk50fY4Hj27xE19s-32" target="3LU_Lk50fY4Hj27xE19s-20">
          <mxGeometry relative="1" as="geometry">
            <Array as="points">
              <mxPoint x="720" y="136" />
              <mxPoint x="720" y="38" />
            </Array>
          </mxGeometry>
        </mxCell>
        <mxCell id="3LU_Lk50fY4Hj27xE19s-32" value="Add (num_senior * 11) to total_cost" style="whiteSpace=wrap;html=1;strokeWidth=2;rounded=1;arcSize=12;" vertex="1" parent="1">
          <mxGeometry x="613" y="102" width="87" height="68" as="geometry" />
        </mxCell>
        <mxCell id="3LU_Lk50fY4Hj27xE19s-38" value="" style="edgeStyle=orthogonalEdgeStyle;rounded=0;orthogonalLoop=1;jettySize=auto;html=1;" edge="1" parent="1" source="3LU_Lk50fY4Hj27xE19s-35" target="3LU_Lk50fY4Hj27xE19s-37">
          <mxGeometry relative="1" as="geometry" />
        </mxCell>
        <mxCell id="3LU_Lk50fY4Hj27xE19s-35" value="Set num_wristbands" style="rounded=1;whiteSpace=wrap;html=1;absoluteArcSize=1;arcSize=14;strokeWidth=2;" vertex="1" parent="1">
          <mxGeometry x="739.5" y="102" width="87" height="68" as="geometry" />
        </mxCell>
        <mxCell id="3LU_Lk50fY4Hj27xE19s-45" value="" style="edgeStyle=orthogonalEdgeStyle;rounded=0;orthogonalLoop=1;jettySize=auto;html=1;" edge="1" parent="1" source="3LU_Lk50fY4Hj27xE19s-37" target="3LU_Lk50fY4Hj27xE19s-44">
          <mxGeometry relative="1" as="geometry" />
        </mxCell>
        <mxCell id="3LU_Lk50fY4Hj27xE19s-37" value="Add (num_wristbands * 20) to total_cost" style="rounded=1;whiteSpace=wrap;html=1;absoluteArcSize=1;arcSize=14;strokeWidth=2;" vertex="1" parent="1">
          <mxGeometry x="724.5" y="200" width="117" height="80" as="geometry" />
        </mxCell>
        <mxCell id="3LU_Lk50fY4Hj27xE19s-43" value="Output:&lt;br&gt;&lt;div&gt;&quot;Â£total_cost&quot;&lt;/div&gt;" style="shape=parallelogram;html=1;strokeWidth=2;perimeter=parallelogramPerimeter;whiteSpace=wrap;rounded=1;arcSize=12;size=0.23;" vertex="1" parent="1">
          <mxGeometry x="359" y="210" width="100" height="60" as="geometry" />
        </mxCell>
        <mxCell id="3LU_Lk50fY4Hj27xE19s-47" style="edgeStyle=orthogonalEdgeStyle;rounded=0;orthogonalLoop=1;jettySize=auto;html=1;exitX=0;exitY=0.5;exitDx=0;exitDy=0;entryX=1;entryY=0.5;entryDx=0;entryDy=0;" edge="1" parent="1" source="3LU_Lk50fY4Hj27xE19s-44" target="3LU_Lk50fY4Hj27xE19s-46">
          <mxGeometry relative="1" as="geometry" />
        </mxCell>
        <mxCell id="3LU_Lk50fY4Hj27xE19s-44" value="Input: Lead Booker Surname" style="shape=parallelogram;html=1;strokeWidth=2;perimeter=parallelogramPerimeter;whiteSpace=wrap;rounded=1;arcSize=12;size=0.23;" vertex="1" parent="1">
          <mxGeometry x="600" y="210" width="100" height="60" as="geometry" />
        </mxCell>
        <mxCell id="3LU_Lk50fY4Hj27xE19s-48" value="" style="edgeStyle=orthogonalEdgeStyle;rounded=0;orthogonalLoop=1;jettySize=auto;html=1;" edge="1" parent="1" source="3LU_Lk50fY4Hj27xE19s-46" target="3LU_Lk50fY4Hj27xE19s-43">
          <mxGeometry relative="1" as="geometry" />
        </mxCell>
        <mxCell id="3LU_Lk50fY4Hj27xE19s-46" value="Input: Do you require a parking pass? (Y/N)" style="shape=parallelogram;html=1;strokeWidth=2;perimeter=parallelogramPerimeter;whiteSpace=wrap;rounded=1;arcSize=12;size=0.23;" vertex="1" parent="1">
          <mxGeometry x="483" y="210" width="100" height="60" as="geometry" />
        </mxCell>
      </root>
    </mxGraphModel>
  </diagram>
</mxfile>
